<?xml version="1.0" encoding="iso-8859-1"?>
<!-- Generator: Adobe Illustrator 19.0.0, SVG Export Plug-In . SVG Version: 6.00 Build 0)  -->
<svg version="1.1" id="Layer_1" xmlns="http://www.w3.org/2000/svg" xmlns:xlink="http://www.w3.org/1999/xlink" x="0px" y="0px"
	 viewBox="0 0 512 512" style="enable-background:new 0 0 512 512;" xml:space="preserve">
<g>
	<g>
		<path fill="#fbbf58" d="M43.104,113.806l29.074,16.786c37.177-54.323,97.774-91.41,167.127-96.577V0.557
			C157.479,5.826,86.123,49.524,43.104,113.806z"/>
	</g>
</g>
<g>
	<g>
		<path fill="#fbbf58" d="M72.178,381.409l-29.074,16.786c43.019,64.282,114.375,107.98,196.201,113.249v-33.459
			C169.952,472.818,109.354,435.731,72.178,381.409z"/>
	</g>
</g>
<g>
	<g>
		<path fill="#fbbf58" d="M272.696,0.557v33.459c69.353,5.167,129.95,42.253,167.127,96.575l29.074-16.786
			C425.877,49.524,354.521,5.826,272.696,0.557z"/>
	</g>
</g>
<g>
	<g>
		<path fill="#fbbf58" d="M55.426,159.477l-29.038-16.765C9.504,176.867,0,215.32,0,256s9.504,79.133,26.388,113.288l29.037-16.765
			C41.31,323.309,33.391,290.562,33.391,256C33.391,221.438,41.31,188.691,55.426,159.477z"/>
	</g>
</g>
<g>
	<g>
		<path fill="#fbbf58" d="M272.696,284.917v159.556c57.022-5.009,106.867-35.413,138.121-79.811L272.696,284.917z M327.45,379.753
			c-7.985,4.61-18.196,1.874-22.806-6.111c-4.611-7.985-1.875-18.196,6.111-22.806c7.985-4.61,18.196-1.874,22.806,6.111
			C338.17,364.931,335.435,375.142,327.45,379.753z"/>
	</g>
</g>
<g>
	<g>
		<path fill="#fbbf58" d="M101.183,364.662c31.255,44.398,81.099,74.801,138.121,79.811V284.917L101.183,364.662z M207.357,373.643
			c-4.609,7.985-14.82,10.721-22.806,6.111c-7.985-4.61-10.722-14.821-6.111-22.806c4.61-7.986,14.821-10.722,22.806-6.111
			C209.231,355.448,211.968,365.658,207.357,373.643z"/>
	</g>
</g>
<g>
	<g>
		<path fill="#fbbf58" d="M84.445,176.232C73.122,200.486,66.783,227.514,66.783,256s6.34,55.514,17.663,79.768L222.609,256L84.445,176.232z
			 M129.798,272.696c-9.22,0-16.696-7.475-16.696-16.696s7.475-16.696,16.696-16.696c9.22,0,16.696,7.475,16.696,16.696
			S139.018,272.696,129.798,272.696z"/>
	</g>
</g>
<g>
	<g>
		<path fill="#fbbf58" d="M485.612,142.712l-29.038,16.765c14.117,29.214,22.035,61.961,22.035,96.523c0,34.562-7.918,67.309-22.035,96.523
			l29.038,16.765C502.496,335.133,512,296.68,512,256S502.496,176.867,485.612,142.712z"/>
	</g>
</g>
<g>
	<g>
		<path fill="#fbbf58" d="M272.696,67.527v159.555l138.121-79.744C379.562,102.94,329.718,72.537,272.696,67.527z M333.56,155.053
			c-4.61,7.986-14.821,10.722-22.806,6.111c-7.985-4.611-10.722-14.821-6.111-22.806c4.609-7.985,14.82-10.721,22.806-6.111
			C335.435,136.857,338.172,147.068,333.56,155.053z"/>
	</g>
</g>
<g>
	<g>
		<path fill="#fbbf58" d="M101.183,147.338l138.121,79.745V67.527C182.282,72.536,132.438,102.94,101.183,147.338z M201.246,161.164
			c-7.985,4.61-18.196,1.874-22.806-6.111s-1.874-18.196,6.111-22.806s18.196-1.874,22.806,6.111
			C211.968,146.343,209.232,156.554,201.246,161.164z"/>
	</g>
</g>
<g>
	<g>
		<path fill="#fbbf58" d="M439.822,381.408c-37.177,54.323-97.774,91.41-167.127,96.577v33.459c81.825-5.269,153.181-48.967,196.201-113.25
			L439.822,381.408z"/>
	</g>
</g>
<g>
	<g>
		<path fill="#fbbf58" d="M427.555,176.232L289.391,256l138.163,79.768c11.323-24.254,17.663-51.282,17.663-79.768S438.878,200.486,427.555,176.232
			z M382.202,272.696c-9.22,0-16.696-7.475-16.696-16.696s7.475-16.696,16.696-16.696s16.696,7.475,16.696,16.696
			S391.423,272.696,382.202,272.696z"/>
	</g>
</g>
<g>
</g>
<g>
</g>
<g>
</g>
<g>
</g>
<g>
</g>
<g>
</g>
<g>
</g>
<g>
</g>
<g>
</g>
<g>
</g>
<g>
</g>
<g>
</g>
<g>
</g>
<g>
</g>
<g>
</g>
</svg>
